# xmcd
# Track frame offsets:
# 150
# 22485
# 46567
# 72475
# 87920
# 126332
# 142305
# 166555
# 193912
# 209345
# 231875
# 251287
#
# Disc length: 3613 seconds
# Revision: 0
# Processed by: cddbd v1.4PL0 Copyright (c) Steve Scherf et al.
# Submitted via: VisiTrax 2.9.5.181 - For more info visit www.synapsa.com
#
DISCID=af0e1b0c
DTITLE=BABA Blues - Kompassernas Män
DYEAR=1993
DGENRE=Blues
TTITLE0=Yta Yta
TTITLE1=Sesam
TTITLE2=Perrongen
TTITLE3=Du Är Underbar
TTITLE4=Försvann
TTITLE5=Gengångaren
TTITLE6=Kärlecarré
TTITLE7=Skuggan
TTITLE8=Gudar and Brudar
TTITLE9=Burdjuret
TTITLE10=Det Ljuva Hålet
TTITLE11=Min Röda Fru
EXTD=
EXTT0=
EXTT1=
EXTT2=
EXTT3=
EXTT4=
EXTT5=
EXTT6=
EXTT7=
EXTT8=
EXTT9=
EXTT10=
EXTT11=
PLAYORDER=
